<svg xmlns="http://www.w3.org/2000/svg" viewBox="0 0 32 32" fill="none">
  <circle cx="16" cy="16" r="16" fill="#0033AD"/>
  <path d="M16.634 15.665l.66-.532-.724-.483-.724.483.67.532h.118zm-1.972-1.577l.67.532.118-.001.66-.532-.724-.483-.724.483zm3.944 0l.67.532.118-.001.66-.532-.724-.483-.724.483zm-1.972-1.577l.67.532.118-.001.66-.532-.724-.483-.724.483zm-1.972 6.308l.67.532.118-.001.66-.532-.724-.483-.724.483zm3.944 0l.67.532.118-.001.66-.532-.724-.483-.724.483zm-1.972-1.577l.67.532.118-.001.66-.532-.724-.483-.724.483z" fill="#fff"/>
</svg> 