<svg xmlns="http://www.w3.org/2000/svg" viewBox="0 0 32 32" fill="none">
  <circle cx="16" cy="16" r="16" fill="#F7931A"/>
  <path d="M22.5 14.255c.294-1.927-1.182-2.962-3.196-3.654l.654-2.57-1.591-.387-.636 2.502c-.418-.102-.848-.198-1.276-.293l.64-2.518-1.589-.387-.654 2.569c-.346-.077-.686-.154-1.016-.234l.002-.008-2.195-.535-.423 1.654s1.182.265 1.157.281c.645.157.761.574.742.904L12.42 15.6c.044.011.102.027.165.051l-.168-.041-.968 3.805c-.073.177-.26.443-.68.342.015.021-1.157-.282-1.157-.282l-.79 1.783 2.072.505c.386.095.764.194 1.136.287l-.661 2.604 1.589.387.654-2.573c.434.115.855.221 1.267.321l-.651 2.559 1.591.387.661-2.598c2.714.501 4.753.299 5.612-2.097.692-1.93-.035-3.044-1.46-3.769.961-.247 1.776-.92 1.98-2.366zM19.256 18.78c-.491 1.93-3.815.887-4.894.625l.873-3.434c1.079.263 4.538.784 4.021 2.809zm.491-5.007c-.448 1.76-3.211.865-4.106.646l.792-3.116c.895.219 3.784.627 3.314 2.47z" fill="#fff"/>
</svg> 