<svg xmlns="http://www.w3.org/2000/svg" viewBox="0 0 32 32" fill="none">
  <circle cx="16" cy="16" r="16" fill="#00FFA3"/>
  <path d="M10.241 19.76a.641.641 0 01.453-.187h12.062a.321.321 0 01.227.547l-2.006 2.006a.641.641 0 01-.453.187H8.462a.321.321 0 01-.227-.547l2.006-2.006zm0-7.52a.641.641 0 01.453-.187h12.062a.321.321 0 01.227.547l-2.006 2.006a.641.641 0 01-.453.187H8.462a.321.321 0 01-.227-.547l2.006-2.006zm11.518-5.513a.641.641 0 00-.453-.187H9.244a.321.321 0 00-.227.547l2.006 2.006a.641.641 0 00.453.187h12.062a.321.321 0 00.227-.547l-2.006-2.006z" fill="#000"/>
</svg> 