<?xml version="1.0" encoding="UTF-8" standalone="no" ?>
<!DOCTYPE svg PUBLIC "-//W3C//DTD SVG 1.1//EN" "http://www.w3.org/Graphics/SVG/1.1/DTD/svg11.dtd">
<svg xmlns="http://www.w3.org/2000/svg" xmlns:xlink="http://www.w3.org/1999/xlink" version="1.1" width="1080" height="1080" viewBox="0 0 1080 1080" xml:space="preserve">
<desc>Created with Fabric.js 5.2.4</desc>
<defs>
</defs>
<rect x="0" y="0" width="100%" height="100%" fill="transparent"></rect>
<g transform="matrix(1 0 0 1 540 540)" id="10bee168-05d8-45cd-8fa1-0fadc0db7c9c"  >
<rect style="stroke: none; stroke-width: 1; stroke-dasharray: none; stroke-linecap: butt; stroke-dashoffset: 0; stroke-linejoin: miter; stroke-miterlimit: 4; fill: rgb(255,255,255); fill-rule: nonzero; opacity: 1; visibility: hidden;" vector-effect="non-scaling-stroke"  x="-540" y="-540" rx="0" ry="0" width="1080" height="1080" />
</g>
<g transform="matrix(1 0 0 1 540 540)" id="df2f71f0-6e74-45a9-b5db-af9b96d27b5c"  >
</g>
<g transform="matrix(22.5 0 0 22.5 540 540)"  >
<g style=""   >
		<g transform="matrix(1 0 0 1 0 3.64)"  >
<path style="stroke: none; stroke-width: 1; stroke-dasharray: none; stroke-linecap: butt; stroke-dashoffset: 0; stroke-linejoin: miter; stroke-miterlimit: 4; fill: rgb(255,255,255); fill-rule: nonzero; opacity: 1;" vector-effect="non-scaling-stroke"  transform=" translate(-24, -27.64)" d="M 13.8261 17.4264 C 16.7203 18.1174 20.2244 18.5217 24 18.5217 C 27.7756 18.5217 31.2797 18.1174 34.1739 17.4264 C 36.9144 16.7722 39.9967 15.2331 41.3563 14.1648 L 24.8486 40.6391 C 24.4571 41.267 23.5429 41.267 23.1514 40.6391 L 6.64374 14.1648 C 8.00331 15.2331 11.0856 16.7722 13.8261 17.4264 Z" stroke-linecap="round" />
</g>
		<g transform="matrix(1 0 0 1 0 -0.44)"  >
<path style="stroke: none; stroke-width: 1; stroke-dasharray: none; stroke-linecap: butt; stroke-dashoffset: 0; stroke-linejoin: miter; stroke-miterlimit: 4; fill: rgb(255,255,255); fill-rule: evenodd; opacity: 1;" vector-effect="non-scaling-stroke"  transform=" translate(-24, -23.56)" d="M 39.998 12.236 C 39.9944 12.2537 39.9875 12.2845 39.9748 12.3294 C 39.9436 12.4399 39.8949 12.5741 39.8346 12.7175 C 39.8168 12.7597 39.7989 12.8007 39.7813 12.8398 C 38.5103 13.7113 35.9788 14.9393 33.7095 15.4811 C 30.9875 16.131 27.6413 16.5217 24 16.5217 C 20.3587 16.5217 17.0125 16.131 14.2905 15.4811 C 12.0012 14.9346 9.44505 13.6897 8.18538 12.8168 C 8.17384 12.7925 8.16216 12.767 8.15052 12.7408 C 8.09919 12.6249 8.05721 12.5114 8.02977 12.411 C 8.00356 12.3152 8.00039 12.2667 8.00004 12.2612 C 8.00004 12.261 8 12.2607 8.00004 12.2612 C 8.00004 12.2359 8.0104 11.9233 8.68485 11.3686 C 9.34546 10.8254 10.4222 10.2469 11.9291 9.72276 C 14.9242 8.68098 19.1919 8 24 8 C 28.8081 8 33.0758 8.68098 36.0709 9.72276 C 37.5778 10.2469 38.6545 10.8254 39.3151 11.3686 C 39.9006 11.8501 39.9857 12.1489 39.998 12.236 Z M 4.95178 15.2312 L 21.4543 41.6973 C 22.6288 43.5809 25.3712 43.5809 26.5457 41.6973 L 43.0534 15.223 C 43.0709 15.1948 43.0878 15.1662 43.104 15.1371 L 41.3563 14.1648 C 43.104 15.1371 43.1038 15.1374 43.104 15.1371 L 43.1051 15.135 L 43.1065 15.1325 L 43.1101 15.1261 L 43.1199 15.1082 C 43.1276 15.094 43.1377 15.0754 43.1497 15.0527 C 43.1738 15.0075 43.2062 14.9455 43.244 14.8701 C 43.319 14.7208 43.4196 14.511 43.5217 14.2683 C 43.6901 13.8679 44 13.0689 44 12.2609 C 44 10.5573 43.003 9.22254 41.8558 8.2791 C 40.6947 7.32427 39.1354 6.55361 37.385 5.94477 C 33.8654 4.72057 29.133 4 24 4 C 18.867 4 14.1346 4.72057 10.615 5.94478 C 8.86463 6.55361 7.30529 7.32428 6.14419 8.27911 C 4.99695 9.22255 3.99999 10.5573 3.99999 12.2609 C 3.99999 13.1275 4.29264 13.9078 4.49321 14.3607 C 4.60375 14.6102 4.71348 14.8196 4.79687 14.9689 C 4.83898 15.0444 4.87547 15.1065 4.9035 15.1529 C 4.91754 15.1762 4.92954 15.1957 4.93916 15.2111 L 4.94662 15.223 L 4.95178 15.2312 Z M 35.9868 18.996 L 24 38.22 L 12.0131 18.996 C 12.4661 19.1391 12.9179 19.2658 13.3617 19.3718 C 16.4281 20.1039 20.0901 20.5217 24 20.5217 C 27.9099 20.5217 31.5719 20.1039 34.6383 19.3718 C 35.082 19.2658 35.5339 19.1391 35.9868 18.996 Z" stroke-linecap="round" />
</g>
</g>
</g>
</svg>